<?xml version="1.0" encoding="utf-8"?>
<!-- Generator: Adobe Illustrator 23.0.0, SVG Export Plug-In . SVG Version: 6.00 Build 0)  -->
<svg version="1.1" id="layer_1" xmlns="http://www.w3.org/2000/svg" xmlns:xlink="http://www.w3.org/1999/xlink" x="0px" y="0px"
	 viewBox="0 0 75.8 72.9" style="enable-background:new 0 0 75.8 72.9;" xml:space="preserve">
<style type="text/css">
	.st0{fill:#F4F4F4;}
</style>
<g>
	<path class="st0" d="M74.1,37c1.3,14.8-9.8,28.1-21.6,32.7c-0.7,0.3-1.4,0.6-2.1,0.8c-1.7,0.5-2.6,0-2.7-1.8c-0.1-2.3,0-4.6,0-6.9
		c0-2.7,0-5.5-1.5-7.9c-0.5-0.8-0.1-1.1,0.6-1.3c1.5-0.4,3.1-0.7,4.5-1.2c5.1-1.6,8.4-5.1,9.5-10.3c1.1-4.9,1.3-9.7-1.8-14.2
		c-0.6-0.8-0.6-2.1-0.7-3.2c-0.1-1.9,0-3.8-0.2-5.6c-0.2-1.8-1-2.4-2.9-1.9c-2,0.6-4,1.3-5.8,2.3c-1.3,0.7-2.4,1.1-3.8,0.8
		c-4.9-1.1-9.8-1.1-14.6,0.1c-1.3,0.3-2.2-0.1-3.2-0.7c-2-1-4-1.9-6.1-2.5c-1.9-0.5-2.5-0.1-2.8,1.9c-0.3,1.9-0.1,3.9-0.2,5.9
		c-0.1,1-0.1,2.1-0.6,2.9c-3.9,5.6-3.2,11.6-0.8,17.4C19.2,48.7,23,51,27.7,52c3.9,0.9,4.1,1.3,2,4.6c-0.4,0.7-1.4,1.2-2.3,1.4
		c-3.5,0.8-6.2-0.5-8.1-3.4c-1.1-1.8-2.6-3-4.6-3.6c-0.6-0.2-1.2-0.2-1.8-0.1c-0.7,0.2-1.2,0.8-0.4,1.3c2.7,1.7,3.9,4.5,5.5,7.1
		c1.6,2.6,4.3,3.5,7.3,3.5c4.2,0,4.2,0.1,4.1,4.2c0,0.3,0,0.6,0,0.9c-0.1,2.6-0.9,3.2-3.3,2.3c-9.5-3.5-16.5-9.8-20.6-19.1
		C-3.3,31.2,8.1,8,29.4,2.7C48.1-2,67,8.2,72.9,26.2C74.1,29.8,74.1,33.4,74.1,37z"/>
</g>
</svg>
