<?xml version="1.0" encoding="utf-8"?>
<!-- Generator: Adobe Illustrator 23.0.0, SVG Export Plug-In . SVG Version: 6.00 Build 0)  -->
<svg version="1.1" id="图层_1" xmlns="http://www.w3.org/2000/svg" xmlns:xlink="http://www.w3.org/1999/xlink" x="0px" y="0px"
	 viewBox="0 0 1598 209.4" style="enable-background:new 0 0 1598 209.4;" xml:space="preserve">
<path d="M49.6,11.4C22.2,11.4,0,33.6,0,61c0,37.2,49.6,92.1,49.6,92.1S99.2,98.2,99.2,61C99.2,33.5,77,11.4,49.6,11.4z M49.6,78.7
	c-9.8,0-17.7-7.9-17.7-17.7s7.9-17.8,17.7-17.8s17.7,7.9,17.7,17.7S59.4,78.7,49.6,78.7z"/>
<g>
	<path d="M166,103.4h-20.9v49.7h-33.7V14.7H166c33.9,0,50.9,19.1,50.9,44.5C216.9,82.2,201.3,103.4,166,103.4z M163.5,76.6
		c13.4,0,19.1-6.7,19.1-17.3s-5.7-17.3-19.1-17.3h-18.3v34.7H163.5z"/>
	<path d="M347,14.7v138.4h-33.7l-56.4-85.4v85.4h-33.7V14.7h33.7l56.4,85.7V14.7H347z"/>
	<path d="M360.2,14.7h33.7v138.4h-33.7V14.7z"/>
	<path d="M424.4,153.1h-13.8V45.5h13.8v19.1c5.9-13.2,18.3-21.1,36.9-21.1v14.4h-3.7c-17.9,0-33.1,8.1-33.1,35.1V153.1z"/>
	<path d="M517.3,154.7c-30.6,0-52.8-21.3-52.8-55.4c0-34.3,21.9-55.4,52.8-55.4c31.5,0,50.9,22.5,50.9,49.9c0,4.3,0,7.1-0.4,10.8
		h-89.3c1.2,25.2,18.7,38.4,38.8,38.4c18.3,0,30.7-9.7,34.7-24h14.6C561.6,139.3,544.3,154.7,517.3,154.7z M478.4,93.4h75.7
		c0.6-25-17.5-37.6-37.5-37.6C497.2,55.7,480,68.4,478.4,93.4z"/>
	<path d="M638.5,43.9c29.4,0,51.2,21.5,51.2,55.2c0,33.7-21.9,55.6-51.2,55.6c-21.5,0-36.5-11.8-42.8-25.2V194h-13.6V45.5h13.6v23.7
		C602,55.5,617,43.9,638.5,43.9z M635.7,55.9c-21.9,0-40,16.6-40,43.4c0,26.8,18.1,43.4,40,43.4c22.7,0,40-16.4,40-43.6
		C675.7,71.7,658.4,55.9,635.7,55.9z"/>
	<path d="M751,154.7c-30.4,0-53.4-21.3-53.4-55.4c0-34.3,23.7-55.4,53.8-55.4c30.4,0,53.8,21.1,53.8,55.4
		C805.2,133.4,781.4,154.7,751,154.7z M751,142.7c20.3,0,40-13.8,40-43.4c0-29.6-19.3-43.4-39.8-43.4s-39.6,13.8-39.6,43.4
		C711.6,128.9,730.5,142.7,751,142.7z"/>
	<path d="M833,153.1h-13.8V45.5H833v19.1c5.9-13.2,18.3-21.1,36.9-21.1v14.4h-3.7C848.2,57.9,833,66,833,93V153.1z"/>
	<path d="M883.3,57.1h-15V45.5h15v-27h14v27h29.6v11.6h-29.6v66.8c0,13.2,4.5,17.3,17,17.3h12.6v11.8h-14.8
		c-18.7,0-28.8-7.7-28.8-29.2V57.1z"/>
</g>
</svg>
