<?xml version="1.0" encoding="utf-8"?>
<svg height='150px' version="1.1" id="layer_1" xmlns="http://www.w3.org/2000/svg" xmlns:xlink="http://www.w3.org/1999/xlink" x="0px" y="0px"
	 viewBox="0 0 905 319" style="enable-background:new 0 0 905 319;" xml:space="preserve">
<g fill='#eeeeee'>
	<path d="M49,86.8H30.1v44.9H-0.4V6.5H49c30.7,0,46,17.3,46,40.3C95,67.5,80.9,86.8,49,86.8z M46.7,62.5c12.1,0,17.3-6.1,17.3-15.7
		s-5.2-15.7-17.3-15.7H30.1v31.4H46.7z"/>
	<path d="M95.7-0.2h30.5v132H95.7V-0.2z"/>
	<path d="M171,30.8c14.8,0,25.3,6.8,30.7,15.5V32.2h30.5v99.5h-30.5v-14.1c-5.5,8.7-16,15.5-30.8,15.5c-24.3,0-43.7-20-43.7-51.4
		C127.1,50.4,146.5,30.8,171,30.8z M179.9,57.4c-11.4,0-21.8,8.6-21.8,24.4c0,15.9,10.3,24.8,21.8,24.8c11.6,0,21.8-8.7,21.8-24.6
		C201.6,66.1,191.5,57.4,179.9,57.4z"/>
	<path d="M282.9,30.8c25,0,42.6,13.7,47.8,37.4h-32.5c-2.5-7-7.5-11.4-15.9-11.4c-10.9,0-18.4,8.6-18.4,25.1
		c0,16.6,7.5,25.1,18.4,25.1c8.4,0,13.2-4.1,15.9-11.4h32.5c-5.2,23-22.8,37.4-47.8,37.4c-29.2,0-49.9-19.6-49.9-51.2
		C233,50.6,253.7,30.8,282.9,30.8z"/>
	<path d="M376,133.2c-29.2,0-50.3-19.6-50.3-51.2c0-31.6,20.7-51.2,50.3-51.2c29.1,0,49.6,19.3,49.6,49.6c0,2.9-0.2,5.9-0.5,8.9h-69
		c1.1,13,9.1,19.1,18.9,19.1c8.6,0,13.4-4.3,15.9-9.6h32.5C418.5,118.2,400.8,133.2,376,133.2z M356.2,72.3h38.2
		c0-10.9-8.6-17.1-18.7-17.1C365.7,55.2,358,61.3,356.2,72.3z"/>
	<path d="M495.1,77.7c0-13.6-7.5-21-19.1-21s-19.1,7.5-19.1,21v54h-30.5V32.2H457v13.2c6.1-8.4,16.8-14.3,30.1-14.3
		c23,0,38.3,15.7,38.3,42.4v58.1h-30.3V77.7z"/>
	<path d="M569.3,30.8c14.8,0,25.3,6.8,30.7,15.5V32.2h30.5v99.5H600v-14.1c-5.5,8.7-16,15.5-30.8,15.5c-24.3,0-43.7-20-43.7-51.4
		C525.5,50.4,544.9,30.8,569.3,30.8z M578.2,57.4c-11.4,0-21.8,8.6-21.8,24.4c0,15.9,10.3,24.8,21.8,24.8c11.6,0,21.8-8.7,21.8-24.6
		C600,66.1,589.8,57.4,578.2,57.4z"/>
	<path d="M774.6,77.7c0-13-7.5-20.1-19.1-20.1c-11.6,0-19.1,7.1-19.1,20.1v54h-30.3v-54c0-13-7.5-20.1-19.1-20.1
		s-19.1,7.1-19.1,20.1v54h-30.5V32.2h30.5v12.5c5.9-8,16-13.6,29.1-13.6c15,0,27.1,6.6,33.9,18.5c6.6-10.5,19.1-18.5,33.5-18.5
		c24.6,0,40.5,15.7,40.5,42.4v58.1h-30.3V77.7z"/>
	<path d="M855.3,133.2c-29.2,0-50.3-19.6-50.3-51.2c0-31.6,20.7-51.2,50.3-51.2c29.1,0,49.6,19.3,49.6,49.6c0,2.9-0.2,5.9-0.5,8.9
		h-69c1.1,13,9.1,19.1,18.9,19.1c8.6,0,13.4-4.3,15.9-9.6h32.5C897.8,118.2,880.1,133.2,855.3,133.2z M835.5,72.3h38.2
		c0-10.9-8.6-17.1-18.7-17.1C845,55.2,837.3,61.3,835.5,72.3z"/>
	<path d="M-0.4,144.5h30.5v125.2H-0.4V144.5z"/>
	<path d="M105.7,215.7c0-13.6-7.5-21-19.1-21s-19.1,7.5-19.1,21v54H37v-99.5h30.5v13.2c6.1-8.4,16.8-14.3,30.1-14.3
		c23,0,38.3,15.7,38.3,42.4v58.1h-30.3V215.7z"/>
	<path d="M182.5,271.2c-26.6,0-44.4-14.8-45.8-34.1h30.1c0.7,7,7,11.6,15.3,11.6c7.8,0,11.9-3.6,11.9-8c0-16-54.2-4.5-54.2-41
		c0-16.9,14.4-30.8,40.5-30.8c25.7,0,39.9,14.3,41.9,33.9h-28.2c-0.9-6.8-6.1-11.2-14.6-11.2c-7.1,0-11.1,2.9-11.1,7.7
		c0,15.9,53.9,4.6,54.4,41.7C222.8,258.1,207.5,271.2,182.5,271.2z"/>
	<rect x="226.4" y="170.2" width="30.5" height="99.5"/>
	<path d="M301.7,168.8c14.6,0,25.3,6.6,30.7,15.5v-14.1h30.5v99.3c0,26.6-15.3,49.2-49.8,49.2c-29.6,0-48.9-15-51.5-38.7h30.1
		c2,7.5,9.5,12.3,20,12.3c11.6,0,20.7-6.1,20.7-22.8v-14.1c-5.5,8.7-16,15.7-30.7,15.7c-24.4,0-43.9-20-43.9-51.4
		C257.8,188.4,277.2,168.8,301.7,168.8z M310.6,195.4c-11.4,0-21.8,8.6-21.8,24.4s10.3,24.8,21.8,24.8c11.6,0,21.8-8.7,21.8-24.6
		C332.3,204.1,322.2,195.4,310.6,195.4z"/>
	<path d="M369.8,137.8h30.5v45.8c6.1-8.6,16.9-14.4,30.7-14.4c22.6,0,37.8,15.7,37.8,42.4v58.1h-30.3v-54c0-13.6-7.5-21-19.1-21
		s-19.1,7.5-19.1,21v54h-30.5V137.8z"/>
	<path d="M479.6,195.5h-12.1v-25.3h12.1V146h30.5v24.3h20v25.3h-20v39.9c0,5.9,2.5,8.4,9.3,8.4h10.9v25.9h-15.5
		c-20.7,0-35.1-8.7-35.1-34.6V195.5z"/>
	<path d="M572.5,271.2c-26.6,0-44.4-14.8-45.8-34.1h30.1c0.7,7,7,11.6,15.3,11.6c7.8,0,11.9-3.6,11.9-8c0-16-54.2-4.5-54.2-41
		c0-16.9,14.4-30.8,40.5-30.8c25.7,0,39.9,14.3,41.9,33.9h-28.2c-0.9-6.8-6.1-11.2-14.6-11.2c-7.1,0-11.1,2.9-11.1,7.7
		c0,15.9,53.9,4.6,54.4,41.7C612.8,258.1,597.5,271.2,572.5,271.2z"/>
	<path d="M665,136.2c-27.4,0-49.6,22.2-49.6,49.6c0,37.2,49.6,92.1,49.6,92.1s49.6-54.9,49.6-92.1C714.6,158.3,692.4,136.2,665,136.2
	z M665,203.5c-9.8,0-17.7-7.9-17.7-17.7S655.2,168,665,168s17.7,7.9,17.7,17.7S674.8,203.5,665,203.5z"/>
</g>

</svg>
